<svg xmlns="http://www.w3.org/2000/svg" width="66" height="66" viewBox="0 0 66 66">
  <metadata><?xpacket begin="﻿" id="W5M0MpCehiHzreSzNTczkc9d"?>
<x:xmpmeta xmlns:x="adobe:ns:meta/" x:xmptk="Adobe XMP Core 5.6-c140 79.160451, 2017/05/06-01:08:21        ">
   <rdf:RDF xmlns:rdf="http://www.w3.org/1999/02/22-rdf-syntax-ns#">
      <rdf:Description rdf:about=""/>
   </rdf:RDF>
</x:xmpmeta>
                                                                                                    
                                                                                                    
                                                                                                    
                                                                                                    
                                                                                                    
                                                                                                    
                                                                                                    
                                                                                                    
                                                                                                    
                                                                                                    
                                                                                                    
                                                                                                    
                                                                                                    
                                                                                                    
                                                                                                    
                                                                                                    
                                                                                                    
                                                                                                    
                                                                                                    
                                                                                                    
                           
<?xpacket end="w"?></metadata>
<defs>
    <style>
      .cls-1 {
        fill: #fff;
        fill-rule: evenodd;
      }
    </style>
  </defs>
  <path id="Forma_4" data-name="Forma 4" class="cls-1" d="M1233.09,2251.68h-55.15a0.944,0.944,0,0,0-.93.97h0v27.39a0.95,0.95,0,0,0,.93.97h37.51a0.976,0.976,0,0,0,0-1.95H1178.9v-25.43h53.25v2.45a0.961,0.961,0,0,0,.94.98h0a0.969,0.969,0,0,0,.95-0.98h0v-3.43a0.96,0.96,0,0,0-.95-0.97m-6.41-4.54-44.11-10.27a0.931,0.931,0,0,0-.71.13,0.9,0.9,0,0,0-.42.62l-2.21,10.26a0.983,0.983,0,0,0,.72,1.17,0.944,0.944,0,0,0,1.12-.75l2.01-9.31,43.19,10.05a0.665,0.665,0,0,0,.21.03,0.946,0.946,0,0,0,.93-0.98,0.959,0.959,0,0,0-.73-0.95m-5.35-5.67-26.48-11.39a0.917,0.917,0,0,0-1.21.47l-2.2,4.56a1,1,0,0,0,.38,1.33,0.932,0.932,0,0,0,1.28-.4,0.321,0.321,0,0,0,.03-0.05h0l1.81-3.76,25.65,11.07a0.947,0.947,0,0,0,1.24-.54,1.009,1.009,0,0,0-.5-1.29m0.66,14.77h-8.75a0.975,0.975,0,0,0,0,1.95h8.75a0.976,0.976,0,0,0,0-1.95m-17.58.06a10.04,10.04,0,1,0,9.71,10.04,9.882,9.882,0,0,0-9.71-10.04m0,18.26a8.219,8.219,0,1,1,7.95-8.22,8.072,8.072,0,0,1-7.95,8.22m26.48-15.06c-5.85,0-12.13,1.43-12.13,4.56v27.38c0,3.13,6.28,4.56,12.13,4.56s12.12-1.43,12.12-4.56v-27.38c0-3.13-6.28-4.56-12.12-4.56m9.92,31.92c-0.17.63-3.47,2.3-9.92,2.3s-9.76-1.67-9.93-2.28v-1.8c2.35,1.23,6.22,1.8,9.93,1.8s7.57-.57,9.92-1.8v1.78Zm0-4.57c-0.17.64-3.47,2.31-9.92,2.31s-9.76-1.67-9.93-2.28v-1.8c2.35,1.23,6.22,1.8,9.93,1.8s7.57-.58,9.92-1.8v1.77Zm0-4.56c-0.17.64-3.47,2.31-9.92,2.31s-9.76-1.67-9.93-2.28v-1.8c2.35,1.22,6.22,1.8,9.93,1.8s7.57-.58,9.92-1.8v1.77Zm0-4.56c-0.17.64-3.47,2.31-9.92,2.31s-9.76-1.67-9.93-2.29v-1.79c2.35,1.23,6.22,1.79,9.93,1.79s7.57-.58,9.92-1.8v1.78Zm0-4.56c-0.17.63-3.47,2.3-9.92,2.3s-9.76-1.67-9.93-2.28v-1.8c2.35,1.22,6.22,1.8,9.93,1.8s7.57-.58,9.92-1.8v1.78Zm0-4.57c-0.17.64-3.47,2.3-9.92,2.3s-9.76-1.66-9.93-2.28v-1.78c2.35,1.21,6.22,1.78,9.93,1.78s7.57-.57,9.92-1.78v1.76Zm-9.92-2.26c-6.45,0-9.75-1.65-9.93-2.25v-0.01c0.18-.64,3.48-2.3,9.93-2.3,6.39,0,9.7,1.64,9.92,2.28-0.22.65-3.53,2.28-9.92,2.28m-35.3,8.15h-8.33l-3.96-4.48v-7.41l4.37-4.41h7.92a0.975,0.975,0,0,0,0-1.95h-8.31a0.9,0.9,0,0,0-.65.28l-4.93,4.97a1.23,1.23,0,0,0-.29.8v8.1a1.01,1.01,0,0,0,.25.67l4.48,5.06a0.907,0.907,0,0,0,.7.32h8.75a0.975,0.975,0,0,0,0-1.95m9.38-9.28h-1.1a0.353,0.353,0,1,1,0-.57h2.75a1.146,1.146,0,0,0,0-2.29h-1.1a1.106,1.106,0,1,0-2.21,0v0.05a2.605,2.605,0,0,0-2.2,2.51,2.675,2.675,0,0,0,2.76,2.58h1.1a0.555,0.555,0,0,1,.55.28,0.54,0.54,0,0,1-.55.28h-2.76a1.125,1.125,0,0,0-1.1,1.14,1.112,1.112,0,0,0,1.1,1.14h1.1a1.106,1.106,0,1,0,2.21,0v-0.04a2.556,2.556,0,0,0-.55-5.08" transform="translate(-1177 -2230)"/>
</svg>
