<?xml version="1.0" encoding="utf-8"?>
<!-- Generator: Adobe Illustrator 22.1.0, SVG Export Plug-In . SVG Version: 6.00 Build 0)  -->
<svg version="1.1" id="Capa_1" xmlns="http://www.w3.org/2000/svg" xmlns:xlink="http://www.w3.org/1999/xlink" x="0px" y="0px"
	 viewBox="0 0 64.4 62.3" style="enable-background:new 0 0 64.4 62.3;" xml:space="preserve">
<style type="text/css">
	.st0{fill:url(#SVGID_1_);}
	.st1{fill:#FFFFFF;}
	.st2{font-family:'Catamaran-Bold';}
	.st3{font-size:6.6665px;}
	.st4{fill:#C5463B;}
	.st5{font-size:8.4558px;}
	.st6{fill:#FFFFFF;stroke:#FFFFFF;stroke-width:0.2253;stroke-miterlimit:10;}
</style>
<linearGradient id="SVGID_1_" gradientUnits="userSpaceOnUse" x1="82.3794" y1="-14.3346" x2="18.3792" y2="43.6655">
	<stop  offset="0" style="stop-color:#87B254"/>
	<stop  offset="0.2798" style="stop-color:#72B0A2"/>
	<stop  offset="0.5333" style="stop-color:#4A7E9C"/>
	<stop  offset="0.7577" style="stop-color:#5473B2"/>
	<stop  offset="1" style="stop-color:#5A5B9E"/>
</linearGradient>
<path class="st0" d="M64.4,55c0,4-3.6,7.3-8.1,7.3H8.1C3.6,62.3,0,59,0,55V7.3C0,3.3,3.6,0,8.1,0h48.3c4.5,0,8.1,3.3,8.1,7.3V55z"/>
<path d="M30.4,5.5c7.9,0,14.3,6.4,14.3,14.3c0,7.9-6.4,14.3-14.3,14.3c-7.9,0-14.3-6.4-14.3-14.3C16.2,11.9,22.5,5.5,30.4,5.5z"/>
<g>
	<text transform="matrix(1 -1.930000e-03 1.930000e-03 1 11.452 50.2014)" class="st1 st2 st3">24 DÍAS X MES</text>
</g>
<path class="st4" d="M60,32.5c0-3.3-3.2-6.1-7.1-6.3v0h-0.4c-0.1,0-0.1,0-0.2,0c0,0-0.1,0-0.1,0H28.7c-0.1,0-0.1,0-0.2,0
	c0,0-0.1,0-0.1,0H28v0c-4,0.2-7.2,3-7.2,6.3c0,3.4,3.2,6.1,7.2,6.3v0h24.9v0C56.9,38.6,60,35.9,60,32.5z"/>
<g>
	<text transform="matrix(1 -1.930000e-03 1.930000e-03 1 23.8225 35.6775)" class="st1 st2 st5">$120,000</text>
</g>
<g>
	<path class="st6" d="M34.2,12c-0.1-0.5-0.6-1-1.2-1c-0.1,0-0.2,0.1-0.2,0.2c0,0.1,0.1,0.2,0.2,0.2c0.4,0,0.7,0.3,0.7,0.7
		c0,0.4-0.3,0.7-0.7,0.7c-0.1,0-0.2,0.1-0.2,0.2c0,0.1,0.1,0.2,0.2,0.2c0.6,0,1.1-0.4,1.2-1h3.2v1.7h-13v-1.7h4.1
		c0.1,0,0.2-0.1,0.2-0.2c0-0.1-0.1-0.2-0.2-0.2H28c0.1-0.3,0.4-0.5,0.7-0.5c0.4,0,0.7,0.3,0.7,0.7c0,0.4-0.3,0.7-0.7,0.7
		c-0.1,0-0.2,0.1-0.2,0.2c0,0.1,0.1,0.2,0.2,0.2c0.7,0,1.2-0.5,1.2-1.2c0-0.7-0.5-1.2-1.2-1.2c-0.6,0-1.1,0.4-1.2,1h-3.6v12.8h14V12
		H34.2z M31.1,14.6H34v2.9h-2.9V14.6z M34,20.9h-2.9V18H34V20.9z M27.7,18h2.9v2.9h-2.9V18z M27.7,14.6h2.9v2.9h-2.9V14.6z
		 M24.3,14.9v-0.2h2.9v2.9h-2.9V14.9z M24.3,18h2.9v2.9h-2.9V18z M24.3,24.3v-2.9h2.9v2.9H24.3z M27.7,24.3v-2.9h2.9v2.9H27.7z
		 M31.1,24.3v-2.9H34v2.9H31.1z M37.4,24.3h-2.9v-2.9h2.9V24.3z M37.4,20.9h-2.9V18h2.9V20.9z M34.5,17.5v-2.9h2.9v2.9H34.5z
		 M34.5,17.5"/>
	<path class="st6" d="M30.1,11.5c0.4,0,0.7,0.3,0.7,0.7c0,0.4-0.3,0.7-0.7,0.7c-0.1,0-0.2,0.1-0.2,0.2c0,0.1,0.1,0.2,0.2,0.2
		c0.7,0,1.2-0.5,1.2-1.2c0-0.7-0.5-1.2-1.2-1.2c-0.1,0-0.2,0.1-0.2,0.2C29.9,11.4,30,11.5,30.1,11.5L30.1,11.5z M30.1,11.5"/>
	<path class="st6" d="M31.6,11.5c0.4,0,0.7,0.3,0.7,0.7c0,0.4-0.3,0.7-0.7,0.7c-0.1,0-0.2,0.1-0.2,0.2c0,0.1,0.1,0.2,0.2,0.2
		c0.7,0,1.2-0.5,1.2-1.2c0-0.7-0.5-1.2-1.2-1.2c-0.1,0-0.2,0.1-0.2,0.2C31.3,11.4,31.4,11.5,31.6,11.5L31.6,11.5z M31.6,11.5"/>
	<path class="st6" d="M31.4,20.6c0,0,0.1,0.1,0.2,0.1c0.1,0,0.1,0,0.2-0.1l0.8-0.8l0.8,0.8c0,0,0.1,0.1,0.2,0.1c0.1,0,0.1,0,0.2-0.1
		c0.1-0.1,0.1-0.2,0-0.3l-0.8-0.8l0.8-0.8c0.1-0.1,0.1-0.2,0-0.3c-0.1-0.1-0.2-0.1-0.3,0l-0.8,0.8l-0.8-0.8c-0.1-0.1-0.2-0.1-0.3,0
		c-0.1,0.1-0.1,0.2,0,0.3l0.8,0.8l-0.8,0.8C31.3,20.3,31.3,20.5,31.4,20.6L31.4,20.6z M31.4,20.6"/>
</g>
</svg>
