<?xml version="1.0" encoding="utf-8"?>
<!-- Generator: Adobe Illustrator 22.1.0, SVG Export Plug-In . SVG Version: 6.00 Build 0)  -->
<svg version="1.1" id="Capa_1" xmlns="http://www.w3.org/2000/svg" xmlns:xlink="http://www.w3.org/1999/xlink" x="0px" y="0px"
	 viewBox="0 0 64.4 62.3" style="enable-background:new 0 0 64.4 62.3;" xml:space="preserve">
<style type="text/css">
	.st0{fill:url(#SVGID_1_);}
	.st1{fill:#FFFFFF;}
	.st2{fill:#C5463B;}
	.st3{font-family:'Catamaran-Bold';}
	.st4{font-size:8.4558px;}
	.st5{font-size:6.6665px;}
</style>
<linearGradient id="SVGID_1_" gradientUnits="userSpaceOnUse" x1="82.3794" y1="-14.3346" x2="18.3792" y2="43.6655">
	<stop  offset="0" style="stop-color:#87B254"/>
	<stop  offset="0.2798" style="stop-color:#72B0A2"/>
	<stop  offset="0.5333" style="stop-color:#4A7E9C"/>
	<stop  offset="0.7577" style="stop-color:#5473B2"/>
	<stop  offset="1" style="stop-color:#5A5B9E"/>
</linearGradient>
<path class="st0" d="M64.4,55c0,4-3.6,7.3-8.1,7.3H8.1C3.6,62.3,0,59,0,55V7.3C0,3.3,3.6,0,8.1,0h48.3c4.5,0,8.1,3.3,8.1,7.3V55z"/>
<path d="M30,5.5c7.9,0,14.3,6.4,14.3,14.3c0,7.9-6.4,14.3-14.3,14.3c-7.9,0-14.3-6.4-14.3-14.3C15.7,11.9,22.1,5.5,30,5.5z"/>
<g>
	<path class="st1" d="M30.7,20.1c-0.3-0.3-0.7-0.5-1.1-0.7c-0.4-0.2-0.9-0.4-1.4-0.6c-0.3-0.1-0.6-0.2-0.8-0.3
		c-0.2-0.1-0.4-0.2-0.6-0.3c-0.2-0.1-0.3-0.2-0.3-0.3c-0.1-0.1-0.1-0.3-0.1-0.5c0-0.3,0.1-0.5,0.4-0.7c0.2-0.2,0.6-0.3,1.2-0.3
		c0.5,0,1.1,0.1,1.5,0.2c0.5,0.1,0.9,0.2,1.3,0.4l0.5-2c-0.3-0.1-0.6-0.2-1-0.3c-0.4-0.1-0.9-0.2-1.5-0.3v-1.8h-2.1v1.8
		c-0.5,0.1-0.9,0.2-1.3,0.4c-0.4,0.2-0.7,0.4-0.9,0.7c-0.2,0.3-0.4,0.6-0.5,0.9c-0.1,0.3-0.2,0.7-0.2,1.1c0,0.5,0.1,0.9,0.3,1.2
		c0.2,0.3,0.4,0.6,0.7,0.9c0.3,0.2,0.6,0.4,1,0.6c0.4,0.2,0.7,0.3,1.1,0.4c0.4,0.1,0.7,0.3,1,0.4c0.3,0.1,0.5,0.2,0.7,0.4
		c0.2,0.1,0.3,0.3,0.4,0.4c0.1,0.2,0.2,0.3,0.2,0.6c0,0.3-0.1,0.6-0.4,0.8c-0.3,0.2-0.7,0.3-1.4,0.3c-0.6,0-1.2-0.1-1.7-0.2
		c-0.5-0.2-1-0.3-1.4-0.5l-0.7,1.9c0.3,0.1,0.6,0.3,1.1,0.5c0.5,0.2,1.2,0.3,2,0.4v2h2.1v-2.1c0.5-0.1,1-0.2,1.4-0.4
		c0.4-0.2,0.7-0.4,0.9-0.7c0.2-0.3,0.4-0.6,0.5-0.9c0.1-0.3,0.2-0.7,0.2-1c0-0.5-0.1-0.9-0.3-1.3C31.3,20.7,31,20.4,30.7,20.1z"/>
</g>
<path class="st1" d="M39.6,15.9c0,1.8-1.4,3.2-3.2,3.2c-1.8,0-3.2-1.4-3.2-3.2c0-1.8,1.4-3.2,3.2-3.2C38.1,12.7,39.6,14.1,39.6,15.9
	z"/>
<path class="st2" d="M54.5,32.5c0-3.3-3-6.1-6.7-6.3v0h-0.4c0,0-0.1,0-0.1,0c0,0-0.1,0-0.1,0h-22c0,0-0.1,0-0.1,0s-0.1,0-0.1,0h-0.3
	v0c-3.8,0.2-6.7,3-6.7,6.3c0,3.4,3,6.1,6.7,6.3v0h23.3v0C51.5,38.6,54.5,35.9,54.5,32.5z"/>
<g>
	<text transform="matrix(1 5.430000e-03 -5.430000e-03 1 23.4629 35.6343)" class="st1 st3 st4">$5,000</text>
</g>
<g>
	<text transform="matrix(1 -1.930000e-03 1.930000e-03 1 5.4273 50.2091)" class="st1 st3 st5">INGRESOS X DÍA</text>
</g>
</svg>
