<?xml version="1.0" encoding="utf-8"?>
<!-- Generator: Adobe Illustrator 22.1.0, SVG Export Plug-In . SVG Version: 6.00 Build 0)  -->
<svg version="1.1" id="Capa_1" xmlns="http://www.w3.org/2000/svg" xmlns:xlink="http://www.w3.org/1999/xlink" x="0px" y="0px"
	 viewBox="0 0 64.4 62.3" style="enable-background:new 0 0 64.4 62.3;" xml:space="preserve">
<style type="text/css">
	.st0{fill:url(#SVGID_1_);}
	.st1{fill:#FFFFFF;}
	.st2{font-family:'Catamaran-Bold';}
	.st3{font-size:6.6665px;}
	.st4{fill:none;stroke:#FFFFFF;stroke-width:0.9011;stroke-linecap:round;stroke-linejoin:round;stroke-miterlimit:10;}
	.st5{fill:#C5463B;}
	.st6{font-size:8.4558px;}
</style>
<linearGradient id="SVGID_1_" gradientUnits="userSpaceOnUse" x1="82.3795" y1="-14.3346" x2="18.3792" y2="43.6655">
	<stop  offset="0" style="stop-color:#87B254"/>
	<stop  offset="0.2798" style="stop-color:#72B0A2"/>
	<stop  offset="0.5333" style="stop-color:#4A7E9C"/>
	<stop  offset="0.7577" style="stop-color:#5473B2"/>
	<stop  offset="1" style="stop-color:#5A5B9E"/>
</linearGradient>
<path class="st0" d="M64.4,55c0,4-3.6,7.3-8.1,7.3H8.1C3.6,62.3,0,59,0,55V7.3C0,3.3,3.6,0,8.1,0h48.3c4.5,0,8.1,3.3,8.1,7.3V55z"/>
<path d="M31.6,5.5c7.9,0,14.3,6.4,14.3,14.3c0,7.9-6.4,14.3-14.3,14.3c-7.9,0-14.3-6.4-14.3-14.3C17.3,11.9,23.7,5.5,31.6,5.5z"/>
<g>
	<text transform="matrix(1 -1.930000e-03 1.930000e-03 1 16.0691 50.188)" class="st1 st2 st3">NEGOCIO</text>
</g>
<g>
	<path class="st4" d="M27.9,14.5v2c0,1.1,0.9,2.1,2.1,2.1c1.1,0,2.1-0.9,2.1-2.1v-2H27.9z"/>
	<path class="st4" d="M23.8,14.5v2c0,1.1,0.9,2.1,2.1,2.1c1.2,0,2.1-0.9,2.1-2.1v-2H23.8z"/>
	<path class="st4" d="M38,11.1H26.3c-0.7,0-1.4,0.4-1.6,1.1l-0.9,2.3h16.7l-0.9-2.3C39.3,11.6,38.7,11.1,38,11.1z"/>
	<polygon class="st4" points="28.5,11.1 32.1,11.1 32.1,14.5 27.9,14.5 	"/>
	<path class="st4" d="M36.3,14.5v2c0,1.1-0.9,2.1-2.1,2.1c-1.2,0-2.1-0.9-2.1-2.1v-2H36.3z"/>
	<path class="st4" d="M40.5,14.5v2c0,1.1-0.9,2.1-2.1,2.1c-1.1,0-2.1-0.9-2.1-2.1v-2H40.5z"/>
	<polygon class="st4" points="35.7,11.1 32.1,11.1 32.1,14.5 36.3,14.5 	"/>
	<rect x="34.5" y="20" class="st4" width="4.6" height="8.8"/>
	<line class="st4" x1="37.8" y1="24.1" x2="37.8" y2="25.4"/>
	<path class="st4" d="M23.8,14.5v4.7c0.4-0.1,0.8-0.1,1.3,0c0.1,0,0.2,0,0.3,0.1c0.1,0.1,0.2,0.2,0.3,0.4c0,0.1,0,0.2,0.1,0.3h7.5v7
		h-6.9l-0.6,1.8h14.9V14.5H23.8z"/>
	<path class="st4" d="M26.1,21.6c0.1,0.1,0.1,0.3,0,0.4c0,0.2-0.1,0.4-0.2,0.5c-0.1,0.1-0.2,0.2-0.2,0.3c-0.1,0.1,0,0.3,0,0.4
		c0,0.2,0,0.5,0.1,0.7c0,0.2,0,0.5-0.1,0.7c-0.2,0.4-0.6,0.5-1,0.5c0,0,0,0,0,0V27h1.6h6.9v-7h-7.5c0,0.5,0,1,0.2,1.4
		C25.9,21.4,26,21.5,26.1,21.6z"/>
	<polygon class="st4" points="24.6,27 23.8,27 23.1,27 23.7,28.8 23.8,28.8 25.6,28.8 26.2,27 	"/>
	<path class="st4" d="M26.1,21.6c0-0.1-0.1-0.2-0.2-0.3c-0.2-0.4-0.2-0.9-0.2-1.4c0-0.1,0-0.2-0.1-0.3c0-0.2-0.1-0.3-0.3-0.4
		c-0.1,0-0.2-0.1-0.3-0.1c-0.4,0-0.9,0-1.3,0c-0.1,0-0.1,0-0.2,0c-0.2,0.1-0.5,0.2-0.6,0.4c-0.2,0.2-0.2,0.5-0.2,0.8
		c0.1,0.3,0.2,0.5,0.4,0.7c0.1,0.1,0.3,0.3,0.3,0.4c0,0.1-0.1,0.2-0.2,0.3c-0.4,0.3-0.6,0.8-0.5,1.2c0.1,0.3,0.3,0.5,0.4,0.8
		c0.1,0.3,0.1,0.6,0.2,0.8c0.1,0.2,0.2,0.3,0.3,0.3c0.2,0.1,0.5,0.1,0.7,0.1c0,0,0.1,0,0.1,0c0,0,0,0,0,0c0.4,0,0.8-0.2,1-0.5
		c0.1-0.2,0.1-0.5,0.1-0.7c0-0.2,0-0.5-0.1-0.7c0-0.1,0-0.3,0-0.4c0-0.1,0.2-0.2,0.2-0.3c0.1-0.1,0.2-0.3,0.2-0.5
		C26.1,21.9,26.1,21.7,26.1,21.6z"/>
</g>
<path class="st5" d="M47.7,32.5c0,3.5-2.8,6.3-6.3,6.4c-3.5,0-6.3-2.8-6.4-6.3c0-3.5,2.8-6.3,6.3-6.4C44.9,26.2,47.7,29,47.7,32.5z"
	/>
<g>
	<text transform="matrix(1 -1.930000e-03 1.930000e-03 1 39.696 35.4607)" class="st1 st2 st6">1</text>
</g>
</svg>
