<svg xmlns="http://www.w3.org/2000/svg" width="55" height="57.03" viewBox="0 0 55 57.03">
  <metadata><?xpacket begin="﻿" id="W5M0MpCehiHzreSzNTczkc9d"?>
<x:xmpmeta xmlns:x="adobe:ns:meta/" x:xmptk="Adobe XMP Core 5.6-c140 79.160451, 2017/05/06-01:08:21        ">
   <rdf:RDF xmlns:rdf="http://www.w3.org/1999/02/22-rdf-syntax-ns#">
      <rdf:Description rdf:about=""/>
   </rdf:RDF>
</x:xmpmeta>
                                                                                                    
                                                                                                    
                                                                                                    
                                                                                                    
                                                                                                    
                                                                                                    
                                                                                                    
                                                                                                    
                                                                                                    
                                                                                                    
                                                                                                    
                                                                                                    
                                                                                                    
                                                                                                    
                                                                                                    
                                                                                                    
                                                                                                    
                                                                                                    
                                                                                                    
                                                                                                    
                           
<?xpacket end="w"?></metadata>
<defs>
    <style>
      .cls-1 {
        fill: #fff;
        fill-rule: evenodd;
      }
    </style>
  </defs>
  <path id="Forma_3" data-name="Forma 3" class="cls-1" d="M1047.62,2264.41l-5.95-7.85a13.429,13.429,0,0,0,3.6-8.31h9.21v1.04a4.773,4.773,0,0,0,.92,9.41,4.773,4.773,0,0,0,.91-9.41v-1.99a0.929,0.929,0,0,0-.91-0.95h-10.13a13.46,13.46,0,0,0-2.68-7.23l1.28-1.32h10.78a2.733,2.733,0,0,0,3.51,1.74,2.88,2.88,0,0,0,1.67-3.64,2.733,2.733,0,0,0-3.51-1.74,2.825,2.825,0,0,0-1.67,1.74h-11.16a0.9,0.9,0,0,0-.65.28l-1.48,1.53a12.474,12.474,0,0,0-18.09.35,13.48,13.48,0,0,0-3.55,8.29h-7.7l-2.99-6.99a2.888,2.888,0,0,0,1.14-3.83,2.679,2.679,0,0,0-3.7-1.19,2.885,2.885,0,0,0-1.14,3.83,2.712,2.712,0,0,0,1.8,1.44l3.46,8.07a0.9,0.9,0,0,0,.83.57h8.3a13.485,13.485,0,0,0,3.53,8.24l-7.73,8.02a9.219,9.219,0,0,0-10.42,7.98,9.454,9.454,0,0,0,7.7,10.8c0.15,0.02.3,0.04,0.46,0.05v4.8a0.938,0.938,0,0,0,.91.96h8.41a2.74,2.74,0,0,0,3.51,1.73,2.886,2.886,0,0,0,1.68-3.64,2.724,2.724,0,0,0-3.51-1.73,2.8,2.8,0,0,0-1.68,1.73h-7.49v-3.85a9.576,9.576,0,0,0,2.47-18.27l7.06-7.31a12.385,12.385,0,0,0,15.68.07l5.08,6.71a13.212,13.212,0,0,0-10.93,15,12.9,12.9,0,0,0,14.47,11.34,13.223,13.223,0,0,0,10.94-15.01,13.022,13.022,0,0,0-12.24-11.46m10.53-10.47a2.752,2.752,0,1,1-2.75-2.85,2.806,2.806,0,0,1,2.75,2.85m-0.92-18.04a0.95,0.95,0,1,1-.92.95,0.931,0.931,0,0,1,.92-0.95m-49.47,1.9a0.951,0.951,0,1,1,.91-0.95,0.935,0.935,0,0,1-.91.95m17.4,49.39a0.956,0.956,0,1,1-.91.95,0.937,0.937,0,0,1,.91-0.95m-7.32-6.72a7.094,7.094,0,0,1-7.33,0v-1.83a3.667,3.667,0,1,1,7.33,0v1.83Zm-5.5-9.42a1.831,1.831,0,1,1,1.83,1.89,1.86,1.86,0,0,1-1.83-1.89m7.33-2.2a7.814,7.814,0,0,1,0,10.05v-0.26a5.732,5.732,0,0,0-2.85-4.99,3.888,3.888,0,0,0-.12-5.37,3.578,3.578,0,0,0-5.18.13,3.9,3.9,0,0,0,0,5.24,5.774,5.774,0,0,0-2.85,4.99v0.26a7.793,7.793,0,0,1,.66-10.72,7.138,7.138,0,0,1,10.34.67m19.24-12.32a10.606,10.606,0,0,1-12.83,0v-2.3a3.091,3.091,0,0,1,3.03-3.14h2.03l-1.33,3.45a0.972,0.972,0,0,0,.2,1.03l1.84,1.9a0.888,0.888,0,0,0,1.29,0l1.83-1.9a0.972,0.972,0,0,0,.2-1.03l-1.32-3.45h2.04a3.083,3.083,0,0,1,3.02,3.14v2.3Zm-6.29-15.42a0.835,0.835,0,0,0-.08.19c-0.46,1.44-2.97,1.98-4.58,2.15,0.25-3.2,1.69-4.7,4.53-4.7,2.61,0,4.03,1.27,4.44,3.93l-3.05-1.9a0.905,0.905,0,0,0-1.26.33m1.14,1.81,3.27,2.04a5.726,5.726,0,0,1-4.54,4.24,5.828,5.828,0,0,1-4.45-3.85c1.57-.14,4.4-0.63,5.72-2.43m-0.51,11.75-0.76.78-0.75-.78,0.75-1.97Zm3.24-5.43a6.691,6.691,0,0,0,2.42-4.8c0-6.27-3.49-7.59-6.42-7.59s-6.41,1.32-6.41,7.59a6.673,6.673,0,0,0,2.42,4.8,4.962,4.962,0,0,0-4.25,4.99v0.58a11.694,11.694,0,0,1,.97-16.09,10.723,10.723,0,0,1,15.52,1.01,11.728,11.728,0,0,1,0,15.08v-0.58a4.962,4.962,0,0,0-4.25-4.99m17.07,37.69a10.591,10.591,0,0,1-12.82,0v-2.3a3.077,3.077,0,0,1,3.02-3.14h2.03l-1.32,3.45a0.956,0.956,0,0,0,.2,1.02l1.83,1.9a0.9,0.9,0,0,0,1.3,0l1.83-1.9a0.956,0.956,0,0,0,.2-1.02l-1.32-3.45h2.03a3.077,3.077,0,0,1,3.02,3.14v2.3Zm-5.15-13.61h0l3.28,2.03a5.739,5.739,0,0,1-4.54,4.24,5.828,5.828,0,0,1-4.45-3.85c1.56-.13,4.4-0.62,5.71-2.42m-5.79.52h0c0.25-3.18,1.7-4.69,4.53-4.69,2.6,0,4.03,1.27,4.44,3.93l-3.05-1.9a0.9,0.9,0,0,0-1.26.32,1.539,1.539,0,0,0-.08.19c-0.47,1.44-2.97,1.99-4.58,2.15m5.29,11.22-0.76.79-0.76-.79,0.76-1.96Zm7.49,0.14v-0.57a4.955,4.955,0,0,0-4.25-4.99,6.644,6.644,0,0,0,2.41-4.8c0-6.28-3.48-7.6-6.41-7.6s-6.41,1.32-6.41,7.6a6.637,6.637,0,0,0,2.42,4.8,4.962,4.962,0,0,0-4.25,4.99v0.57a11.681,11.681,0,0,1,.99-16.07,10.729,10.729,0,0,1,15.51,1.03,11.673,11.673,0,0,1-.01,15.04" transform="translate(-1005 -2233.97)"/>
</svg>
