<svg xmlns="http://www.w3.org/2000/svg" viewBox="0 0 1550 50" width="1550" height="50"><g fill="#000000" stroke="#ffffff" stroke-width="3" stroke-linecap="round"><path d="M5.328 18.744h39.366M25.011 30.744h19.683"/></g><g fill="#000000" stroke="#ffffff" stroke-width="3" stroke-linecap="round"><path d="M55.342 18.793l39.338-.069M74.977 30.695l19.703.069"/></g><g fill="#000000" stroke="#ffffff" stroke-width="3" stroke-linecap="round"><path d="M105.389 18.956l39.244-.296M124.863 30.532l19.77.296"/></g><g fill="#000000" stroke="#ffffff" stroke-width="3" stroke-linecap="round"><path d="M155.477 19.259l39.068-.72M174.651 30.229l19.894.72"/></g><g fill="#000000" stroke="#ffffff" stroke-width="3" stroke-linecap="round"><path d="M205.616 19.739l38.79-1.39M224.316 29.749l20.09 1.39"/></g><g fill="#000000" stroke="#ffffff" stroke-width="3" stroke-linecap="round"><path d="M255.819 20.439l38.384-2.369M273.827 29.049l20.376 2.369"/></g><g fill="#000000" stroke="#ffffff" stroke-width="3" stroke-linecap="round"><path d="M306.1 21.412l37.822-3.729M323.147 28.076l20.775 3.729"/></g><g fill="#000000" stroke="#ffffff" stroke-width="3" stroke-linecap="round"><path d="M356.472 22.697l37.078-5.524M372.249 26.791l21.301 5.524"/></g><g fill="#000000" stroke="#ffffff" stroke-width="3" stroke-linecap="round"><path d="M406.931 24.282l36.16-7.74M421.141 25.206l21.95 7.74"/></g><g fill="#000000" stroke="#ffffff" stroke-width="3" stroke-linecap="round"><path d="M457.445 26.06l35.132-10.224M469.899 23.428l22.678 10.224"/></g><g fill="#000000" stroke="#ffffff" stroke-width="3" stroke-linecap="round"><path d="M507.964 27.852l34.094-12.729M518.647 21.636l23.411 12.729"/></g><g fill="#000000" stroke="#ffffff" stroke-width="3" stroke-linecap="round"><path d="M558.444 29.509l33.134-15.044M567.489 19.979l24.089 15.044"/></g><g fill="#000000" stroke="#ffffff" stroke-width="3" stroke-linecap="round"><path d="M608.865 30.966l32.292-17.08M616.471 18.522l24.686 17.08"/></g><g fill="#000000" stroke="#ffffff" stroke-width="3" stroke-linecap="round"><path d="M659.228 32.217l31.566-18.829M665.597 17.271L690.794 36.1"/></g><g fill="#000000" stroke="#ffffff" stroke-width="3" stroke-linecap="round"><path d="M709.536 33.283l30.95-20.319M714.851 16.205l25.635 20.319"/></g><g fill="#000000" stroke="#ffffff" stroke-width="3" stroke-linecap="round"><path d="M759.799 34.192l30.424-21.589M764.217 15.296l26.006 21.589"/></g><g fill="#000000" stroke="#ffffff" stroke-width="3" stroke-linecap="round"><path d="M810.023 34.966l29.976-22.671M813.676 14.522l26.323 22.671"/></g><g fill="#000000" stroke="#ffffff" stroke-width="3" stroke-linecap="round"><path d="M860.215 35.627l29.592-23.594M863.214 13.861l26.593 23.594"/></g><g fill="#000000" stroke="#ffffff" stroke-width="3" stroke-linecap="round"><path d="M910.378 36.192l29.266-24.384M912.819 13.296l26.825 24.384"/></g><g fill="#000000" stroke="#ffffff" stroke-width="3" stroke-linecap="round"><path d="M960.517 36.674l28.988-25.058M962.482 12.814l27.023 25.058"/></g><g fill="#000000" stroke="#ffffff" stroke-width="3" stroke-linecap="round"><path d="M1010.636 37.084l28.75-25.631M1012.196 12.404l27.19 25.631"/></g><g fill="#000000" stroke="#ffffff" stroke-width="3" stroke-linecap="round"><path d="M1060.737 37.432l28.548-26.117M1061.952 12.056l27.333 26.117"/></g><g fill="#000000" stroke="#ffffff" stroke-width="3" stroke-linecap="round"><path d="M1110.822 37.725l28.378-26.526M1111.748 11.763l27.452 26.526"/></g><g fill="#000000" stroke="#ffffff" stroke-width="3" stroke-linecap="round"><path d="M1160.892 37.969l28.238-26.867M1161.577 11.519l27.553 26.867"/></g><g fill="#000000" stroke="#ffffff" stroke-width="3" stroke-linecap="round"><path d="M1210.95 38.169l28.122-27.147M1211.437 11.319l27.635 27.147"/></g><g fill="#000000" stroke="#ffffff" stroke-width="3" stroke-linecap="round"><path d="M1260.997 38.331l28.028-27.373M1261.325 11.157l27.7 27.373"/></g><g fill="#000000" stroke="#ffffff" stroke-width="3" stroke-linecap="round"><path d="M1311.033 38.456l27.956-27.548M1311.237 11.032l27.752 27.548"/></g><g fill="#000000" stroke="#ffffff" stroke-width="3" stroke-linecap="round"><path d="M1361.06 38.55l27.902-27.679M1361.172 10.938l27.79 27.679"/></g><g fill="#000000" stroke="#ffffff" stroke-width="3" stroke-linecap="round"><path d="M1411.079 38.613l27.864-27.768M1411.127 10.875l27.816 27.768"/></g><g fill="#000000" stroke="#ffffff" stroke-width="3" stroke-linecap="round"><path d="M1461.09 38.65l27.842-27.819M1461.101 10.838l27.831 27.819"/></g><g fill="#000000" stroke="#ffffff" stroke-width="3" stroke-linecap="round"><path d="M1511.093 38.662l27.836-27.836M1511.093 10.826l27.836 27.836"/></g></svg>