<?xml version="1.0" encoding="utf-8"?>
<!-- Generator: Adobe Illustrator 19.0.0, SVG Export Plug-In . SVG Version: 6.00 Build 0)  -->
<svg version="1.1" id="Layer_1" xmlns="http://www.w3.org/2000/svg" xmlns:xlink="http://www.w3.org/1999/xlink" x="0px" y="0px"
	 viewBox="-249 161.7 291.3 291.3" style="enable-background:new -249 161.7 291.3 291.3;" xml:space="preserve">
<style type="text/css">
	.st0{fill:#FF2D2D;}
	.st1{fill:#FFFFFF;}
</style>
<path class="st0" d="M-103.3,161.7c80.4,0,145.7,65.2,145.7,145.7c0,80.5-65.2,145.7-145.7,145.7S-249,387.8-249,307.3
	C-249,226.9-183.8,161.7-103.3,161.7z"/>
<g id="XMLID_1030_">
	<path id="XMLID_1033_" class="st1" d="M-41,245.7c-8.9-10.4-21.6-16.3-34.9-16.3c-16,0-31,8.6-41.2,23.5c-0.7,1-1.3,2-1.8,3.1
		c-1.4,2.8-2.3,5.8-2.7,8.8c-3.4-1.4-7.2-2.2-11.3-2.3c-20.2-0.7-39.1,13.5-44.5,33.3c-2.3,8.3,0,17.1,5.9,23.4
		c1.3,1.4,2.8,2.7,4.5,3.7c-0.5,3.7-1.2,7.7-1.6,10.5c-1,5.7-1.9,11.1-2.1,16c-0.6,13.1,4.5,21.3,8.9,25.9
		c5.9,6.2,14.1,9.6,23.1,9.6c5.1,0,10.4-1.1,15.8-3.2c1.9-0.8,3.8-1.7,5.6-2.8c5.6,4.1,12.4,6.4,19.7,6.4c6.2,0,12.4-1.7,18.1-5
		c33.8-19.5,47.5-65.7,50.4-90.2C-26.7,273.5-31,257.3-41,245.7z M-53.4,286.9c-2,18.1-13.2,57.7-38.4,72.2
		c-7.2,4.2-15,0.6-16.5-10.7c-0.6-4.8-0.5-10.9-1-16.4c-4.1,7.7-14.7,23.8-22.6,26.9c-7.9,3.1-14.9,1.9-14.4-8.4
		c0.7-14.4,13.1-52.8-7.4-48.2c2.4-8.7,11.3-15.6,20.1-15.3c5.3,0.2,7,4.1,7.2,8.1c0.5,11.8,0.5,43.5,0.5,47.3
		c21.3-22.8,21.8-37.6,9.6-36.9c2.9-7.1,23.4-20.4,25.2-3.2c0.8,9.7,1.9,35.9,2,39.2c0.4,4.3,6.1-3,7.8-5.4
		c17.1-19.4,27.1-88,0.6-66.1c-10.3,9.6-18.9,2.6-16-3.3C-79.4,241-48.8,257.1-53.4,286.9z"/>
</g>
</svg>
