<?xml version="1.0" encoding="utf-8"?>
<!-- Generator: Adobe Illustrator 22.1.0, SVG Export Plug-In . SVG Version: 6.00 Build 0)  -->
<svg version="1.1" id="Capa_1" xmlns="http://www.w3.org/2000/svg" xmlns:xlink="http://www.w3.org/1999/xlink" x="0px" y="0px"
	 viewBox="0 0 64.4 62.3" style="enable-background:new 0 0 64.4 62.3;" xml:space="preserve">
<style type="text/css">
	.st0{fill:url(#SVGID_1_);}
	.st1{fill:#FFFFFF;}
	.st2{font-family:'Catamaran-Bold';}
	.st3{font-size:6.6665px;}
	.st4{fill:none;stroke:#FFFFFF;stroke-width:0.9011;stroke-linecap:round;stroke-linejoin:round;stroke-miterlimit:10;}
	.st5{fill:#C5463B;}
	.st6{font-size:8.4558px;}
</style>
<linearGradient id="SVGID_1_" gradientUnits="userSpaceOnUse" x1="82.3794" y1="-14.3346" x2="18.3792" y2="43.6655">
	<stop  offset="0" style="stop-color:#87B254"/>
	<stop  offset="0.2798" style="stop-color:#72B0A2"/>
	<stop  offset="0.5333" style="stop-color:#4A7E9C"/>
	<stop  offset="0.7577" style="stop-color:#5473B2"/>
	<stop  offset="1" style="stop-color:#5A5B9E"/>
</linearGradient>
<path class="st0" d="M64.4,55c0,4-3.6,7.3-8.1,7.3H8.1C3.6,62.3,0,59,0,55V7.3C0,3.3,3.6,0,8.1,0h48.3c4.5,0,8.1,3.3,8.1,7.3V55z"/>
<path d="M30.2,5.5c7.9,0,14.3,6.4,14.3,14.3c0,7.9-6.4,14.3-14.3,14.3c-7.9,0-14.3-6.4-14.3-14.3C16,11.9,22.3,5.5,30.2,5.5z"/>
<g>
	<text transform="matrix(1 -1.930000e-03 1.930000e-03 1 19.6436 50.1841)" class="st1 st2 st3">VENTAS</text>
</g>
<g>
	<path class="st4" d="M29.1,26.4c0,1-0.8,1.8-1.8,1.8c-1,0-1.8-0.8-1.8-1.8c0-1,0.8-1.8,1.8-1.8C28.3,24.5,29.1,25.3,29.1,26.4z"/>
	<path class="st4" d="M36.9,26.4c0,1-0.8,1.8-1.8,1.8c-1,0-1.8-0.8-1.8-1.8c0-1,0.8-1.8,1.8-1.8C36.1,24.5,36.9,25.3,36.9,26.4z"/>
	<polyline class="st4" points="25.4,13.4 37.2,13.4 37.2,18.3 26.4,20.8 25.1,11.4 22.5,11.4 	"/>
	<path class="st4" d="M26.4,20.8c-1.8,0.3-2.3,1.3-2.2,3.6H38"/>
	<line class="st4" x1="29.3" y1="13.4" x2="29.3" y2="19.6"/>
	<line class="st4" x1="33.2" y1="13.4" x2="33.2" y2="18.9"/>
</g>
<path class="st5" d="M56.5,32.5c0-3.3-2.6-6.1-5.9-6.3v0h-0.3c0,0-0.1,0-0.1,0c0,0-0.1,0-0.1,0H30.6c0,0-0.1,0-0.1,0
	c0,0-0.1,0-0.1,0h-0.3v0c-3.3,0.2-5.9,3-5.9,6.3c0,3.4,2.6,6.1,5.9,6.3v0h20.5v0C53.9,38.6,56.5,35.9,56.5,32.5z"/>
<g>
	<text transform="matrix(1 -1.930000e-03 1.930000e-03 1 35.8154 35.4654)" class="st1 st2 st6">10</text>
</g>
</svg>
