<svg xmlns="http://www.w3.org/2000/svg" width="65.969" height="50" viewBox="0 0 65.969 50">
  <metadata><?xpacket begin="﻿" id="W5M0MpCehiHzreSzNTczkc9d"?>
<x:xmpmeta xmlns:x="adobe:ns:meta/" x:xmptk="Adobe XMP Core 5.6-c140 79.160451, 2017/05/06-01:08:21        ">
   <rdf:RDF xmlns:rdf="http://www.w3.org/1999/02/22-rdf-syntax-ns#">
      <rdf:Description rdf:about=""/>
   </rdf:RDF>
</x:xmpmeta>
                                                                                                    
                                                                                                    
                                                                                                    
                                                                                                    
                                                                                                    
                                                                                                    
                                                                                                    
                                                                                                    
                                                                                                    
                                                                                                    
                                                                                                    
                                                                                                    
                                                                                                    
                                                                                                    
                                                                                                    
                                                                                                    
                                                                                                    
                                                                                                    
                                                                                                    
                                                                                                    
                           
<?xpacket end="w"?></metadata>
<defs>
    <style>
      .cls-1 {
        fill: #fff;
        fill-rule: evenodd;
      }
    </style>
  </defs>
  <path id="Forma_2" data-name="Forma 2" class="cls-1" d="M867.069,2275.15a3.021,3.021,0,1,0,3.079,3.01,3.05,3.05,0,0,0-3.079-3.01m0,4.14a1.125,1.125,0,1,1,1.142-1.13,1.141,1.141,0,0,1-1.142,1.13M850,2266.71h-7.543a3.691,3.691,0,0,0-3.722,3.65v7.41a3.684,3.684,0,0,0,3.722,3.65H850a3.682,3.682,0,0,0,3.719-3.65v-7.41a3.689,3.689,0,0,0-3.719-3.65m1.79,11.06a1.777,1.777,0,0,1-1.79,1.76h-7.543a1.775,1.775,0,0,1-1.79-1.76v-7.41a1.775,1.775,0,0,1,1.79-1.76H850a1.777,1.777,0,0,1,1.79,1.76v7.41Zm29.768-3.18a6.085,6.085,0,0,1,3.5,5.04,5.966,5.966,0,0,1-1.023,3.78,3.879,3.879,0,0,1-3.233,1.69h-1.9v-21.12a9.722,9.722,0,0,0,4.285-4.29,6,6,0,0,0-.264-5.78L877,2243.78v-3.11a3.713,3.713,0,0,0-3.74-3.67H839.12a3.712,3.712,0,0,0-3.735,3.67v3.11l-5.922,10.13a6.008,6.008,0,0,0-.259,5.78,9.579,9.579,0,0,0,3.6,3.9v9.19a8.219,8.219,0,0,0-3.355,2.72,2.586,2.586,0,0,1-1.925,1.08,7.092,7.092,0,0,0-5.482,3.29,6.755,6.755,0,0,0-1.037,3.62,3.565,3.565,0,0,0,3.609,3.51h56.183a5.834,5.834,0,0,0,4.839-2.53,7.812,7.812,0,0,0,1.342-4.97,7.977,7.977,0,0,0-4.579-6.62,6.549,6.549,0,0,0-3.628-.69c-1.112.26-.429,1.75-0.429,1.75a9.872,9.872,0,0,1,3.214.65m-0.117-15.72a8.876,8.876,0,0,1-8.085,4.55,9.082,9.082,0,0,1-7.661-3.82l-0.5-2.71h16.663a4.171,4.171,0,0,1-.418,1.98m-32.284-1.98h14.072l0.53,2.86a9.628,9.628,0,0,1-15.126,0Zm11.934-12.07,1.79,10.17H849.5l1.848-10.01h24.117s5.822,9.97,5.852,10.01H864.844l-1.855-10.17m-23.869-5.92h34.136a1.791,1.791,0,0,1,1.8,1.77v2.41h-37.74v-2.41a1.794,1.794,0,0,1,1.8-1.77m-2.209,6.08h12.471l-1.849,10.01h-16.47c0.025-.04,5.848-10.01,5.848-10.01m-5.97,13.89a4.072,4.072,0,0,1-.412-1.98h16.663l-0.5,2.71a9.1,9.1,0,0,1-7.666,3.82,8.879,8.879,0,0,1-8.084-4.55m-8.007,24.62a4.893,4.893,0,0,1,.753-2.63,5.146,5.146,0,0,1,3.98-2.39,4.517,4.517,0,0,0,3.361-1.88,6.265,6.265,0,0,1,1.773-1.66v10.17h-8.19a1.642,1.642,0,0,1-1.677-1.61m11.805,1.61v-20.56a11.938,11.938,0,0,0,4.286.79,11.279,11.279,0,0,0,8.583-3.76,11.675,11.675,0,0,0,17.165,0,11.279,11.279,0,0,0,8.578,3.76,11.924,11.924,0,0,0,3.6-.56v20.33h-4.169v-13.39a5.05,5.05,0,0,0-5.087-5h-4.706a5.051,5.051,0,0,0-5.092,5v13.39H834.739Zm25.095,0v-13.39a3.141,3.141,0,0,1,3.155-3.11h4.71a3.141,3.141,0,0,1,3.155,3.11v13.39h-11.02Z" transform="translate(-821 -2237)"/>
</svg>
