<svg id="Layer_1" data-name="Layer 1" xmlns="http://www.w3.org/2000/svg" viewBox="0 0 300 300"><title>ciudades win</title><path d="M27.66,79v88q0,16.84,8.43,25.28t22.58,8.43q14.16,0,22.58-8.64t8.43-25.07V79H117v90.12a52.59,52.59,0,0,1-7.29,27.57,50.93,50.93,0,0,1-20.6,19.15q-13.32,7-30.8,7-17.28,0-30.39-7A49.61,49.61,0,0,1,7.68,196.61,54.09,54.09,0,0,1,.61,169.14L.4,79Z"/><path d="M115.84,211.18l6-21.85a108.24,108.24,0,0,0,17.48,7,61.2,61.2,0,0,0,17.9,3q12.48,0,18.93-3.95a12.65,12.65,0,0,0,6.46-11.45q0-5.19-5.1-9.47t-15.72-10.09l-6.24-3.75q-14-8.31-22.16-14.36A64,64,0,0,1,119.27,132a30.75,30.75,0,0,1-5.93-18.42,34,34,0,0,1,5.83-19.46q5.82-8.64,16.75-13.53T162,75.69q17.9,0,40,10.62L193.05,108a125.68,125.68,0,0,0-15.5-6.45,48,48,0,0,0-15.09-2.29q-9.36,0-15.3,3.64a11.81,11.81,0,0,0-5.93,10.72,12.8,12.8,0,0,0,4.68,10.09q4.69,4.07,15.3,10.31l6.66,3.74,6,3.54a226.75,226.75,0,0,1,19.56,12.38,48,48,0,0,1,12.17,12.91,32.12,32.12,0,0,1,4.89,17.79,34.21,34.21,0,0,1-6.14,20.19q-6.13,8.73-18.1,13.73t-28.62,5q-8.73,0-21.75-3.85T115.84,211.18Z"/><rect x="2.29" y="215.53" width="297.31" height="8.78"/></svg>