<svg id="Layer_1" data-name="Layer 1" xmlns="http://www.w3.org/2000/svg" viewBox="0 0 300 300"><title>ciudades win</title><path d="M105.72,85,97.4,104.31l-5.2-1.46q-8.11-2.49-12.91-3.43a62.67,62.67,0,0,0-11.86-.94,34.48,34.48,0,0,0-20.19,6.24q-8.94,6.25-14,17.9t-5.1,27.26a70.1,70.1,0,0,0,4.47,25.5,42.11,42.11,0,0,0,13,18.31,31.5,31.5,0,0,0,20.18,6.77,80.68,80.68,0,0,0,31-6.45L107,214a77.34,77.34,0,0,1-19.25,6.66,96.44,96.44,0,0,1-20.5,2.49q-21.43,0-36.63-9.57A60.19,60.19,0,0,1,7.7,187.45Q0,170.9,0,150.09q0-21.65,8.43-38.5A63.37,63.37,0,0,1,32.36,85.26q15.51-9.47,35.9-9.47a91.52,91.52,0,0,1,18.32,2.29A69.49,69.49,0,0,1,105.72,85Z"/><path d="M160.61,75.38q21.42,0,37.25,9.68a63,63,0,0,1,24,26.32q8.21,16.65,8.22,37.26,0,21.65-8.74,38.39a65.1,65.1,0,0,1-24.46,26.23q-15.72,9.47-36.31,9.88-21.45,0-37.15-9.67a63.33,63.33,0,0,1-23.94-26.23Q91.3,170.7,91.3,150.09q0-21.43,8.64-38.29a64.67,64.67,0,0,1,24.45-26.43Q140.2,75.8,160.61,75.38Zm-41.21,74.5a65.73,65.73,0,0,0,5,26.33,40.54,40.54,0,0,0,14.26,17.9,37.52,37.52,0,0,0,21.75,6.35,40,40,0,0,0,21.12-5.73q9.47-5.72,15-17.48T202,148.64a64.65,64.65,0,0,0-5-26,41.12,41.12,0,0,0-14.37-17.9A37.2,37.2,0,0,0,161,98.27a36.45,36.45,0,0,0-20.71,6.35q-9.47,6.34-15.19,18.11T119.4,149.88Z"/><rect x="2.69" y="215.84" width="297.31" height="8.78"/></svg>