<svg xmlns="http://www.w3.org/2000/svg" width="60" height="60" viewBox="0 0 60 60">
  <metadata><?xpacket begin="﻿" id="W5M0MpCehiHzreSzNTczkc9d"?>
<x:xmpmeta xmlns:x="adobe:ns:meta/" x:xmptk="Adobe XMP Core 5.6-c140 79.160451, 2017/05/06-01:08:21        ">
   <rdf:RDF xmlns:rdf="http://www.w3.org/1999/02/22-rdf-syntax-ns#">
      <rdf:Description rdf:about=""/>
   </rdf:RDF>
</x:xmpmeta>
                                                                                                    
                                                                                                    
                                                                                                    
                                                                                                    
                                                                                                    
                                                                                                    
                                                                                                    
                                                                                                    
                                                                                                    
                                                                                                    
                                                                                                    
                                                                                                    
                                                                                                    
                                                                                                    
                                                                                                    
                                                                                                    
                                                                                                    
                                                                                                    
                                                                                                    
                                                                                                    
                           
<?xpacket end="w"?></metadata>
<defs>
    <style>
      .cls-1 {
        fill: #167bd7;
        fill-rule: evenodd;
      }
    </style>
  </defs>
  <path id="Forma_1" data-name="Forma 1" class="cls-1" d="M42.494,24.827c0-.288,0-0.573-0.018-0.854a12.958,12.958,0,0,0,3.14-3.379,12.057,12.057,0,0,1-3.614.99,6.463,6.463,0,0,0,2.767-3.617,12.077,12.077,0,0,1-3.994,1.542,6.25,6.25,0,0,0-4.591-2.168,6.359,6.359,0,0,0-6.29,6.562,6.993,6.993,0,0,0,.163,1.521,17.709,17.709,0,0,1-12.968-7.172,7.069,7.069,0,0,0,1.947,9,6.029,6.029,0,0,1-2.85-.873V26.46a6.687,6.687,0,0,0,5.048,6.627,5.948,5.948,0,0,1-1.656.226,5.815,5.815,0,0,1-1.183-.13,6.4,6.4,0,0,0,5.876,4.687,12.132,12.132,0,0,1-7.812,2.848,12.009,12.009,0,0,1-1.5-.1A16.96,16.96,0,0,0,24.6,43.648C36.168,43.651,42.494,33.572,42.494,24.827Zm16.263,5.667a28.472,28.472,0,1,0-28.472,28.5A28.486,28.486,0,0,0,58.757,30.494Zm-54.357,0A25.884,25.884,0,1,1,30.285,56.4,25.9,25.9,0,0,1,4.4,30.494Z"/>
</svg>
